<svg version="1.0" xmlns="http://www.w3.org/2000/svg" width="575.000000pt" height="414.000000pt" viewBox="0 0 575.000000 414.000000">
  <g transform="translate(-600.000000, 800.000000) scale(0.28, -0.28)" fill="#000" stroke="none" style="mix-blend-mode:darken">
    <path d="M2631 2704 c-79 -40 -140 -134 -111 -169 22 -26 48 -17 77 27 60 89
    151 115 227 63 20 -14 45 -25 56 -25 11 0 36 11 56 25 95 65 228 0 241 -117 4
    -31 0 -55 -12 -79 -9 -19 -158 -176 -330 -349 -311 -313 -313 -315 -325 -371
    -17 -75 -6 -138 33 -196 63 -93 193 -130 295 -83 41 19 43 19 85 0 62 -29 141
    -26 206 6 79 40 140 134 111 169 -22 26 -48 17 -77 -27 -60 -89 -151 -115
    -227 -63 -46 31 -66 31 -112 0 -89 -60 -220 -5 -240 101 -15 82 -5 96 335 439
    289 291 319 324 331 368 41 151 -60 295 -215 305 -47 3 -73 -1 -109 -16 -46
    -21 -46 -21 -89 -2 -62 29 -141 26 -206 -6z"/>
    
    <path d="M2379 2436 c-130 -46 -196 -199 -139 -323 19 -42 19 -44 0 -85 -44
    -97 -12 -228 71 -288 52 -37 84 -46 104 -30 26 22 17 48 -27 77 -89 60 -115
    151 -63 227 14 20 25 45 25 56 0 11 -11 36 -25 56 -60 89 -5 220 101 240 68
    13 110 -10 225 -122 59 -57 111 -104 116 -104 12 0 43 33 43 45 0 4 -46 55
    -102 113 -142 144 -220 177 -329 138z"/>
    
    <path d="M3342 2428 c-22 -22 -12 -46 30 -75 89 -60 115 -151 63 -227 -14 -20
    -25 -45 -25 -56 0 -11 11 -36 25 -56 65 -95 0 -228 -117 -241 -63 -7 -96 12
    -215 129 -56 55 -108 98 -114 96 -7 -2 -19 -14 -27 -27 -15 -22 -12 -26 104
    -140 111 -111 123 -119 175 -131 75 -17 137 -6 196 33 93 62 129 193 83 295
    -19 41 -19 43 0 85 47 102 10 231 -84 295 -51 34 -75 39 -94 20z"/>
  </g>
</svg>
